<svg width="12" height="14" viewBox="0 0 12 14" fill="none" xmlns="http://www.w3.org/2000/svg">
<path d="M9.69141 7.75537C9.69141 6.67139 10.1895 5.88037 11.1562 5.26514C10.5996 4.47412 9.7793 4.06396 8.69531 3.97607C7.64062 3.88818 6.49805 4.56201 6.08789 4.56201C5.64844 4.56201 4.65234 4.00537 3.86133 4.00537C2.2207 4.03467 0.492188 5.29443 0.492188 7.90186C0.492188 8.66357 0.609375 9.45459 0.902344 10.2749C1.2832 11.3589 2.63086 13.9956 4.03711 13.937C4.76953 13.937 5.29688 13.4097 6.26367 13.4097C7.20117 13.4097 7.66992 13.937 8.49023 13.937C9.92578 13.937 11.1562 11.5347 11.5078 10.4507C9.60352 9.54248 9.69141 7.81396 9.69141 7.75537ZM8.05078 2.95068C8.8418 2.01318 8.75391 1.13428 8.75391 0.812012C8.05078 0.870605 7.23047 1.31006 6.76172 1.8374C6.23438 2.42334 5.94141 3.15576 6 3.94678C6.76172 4.00537 7.46484 3.62451 8.05078 2.95068Z" fill="white"/>
</svg>
